<svg width="1200" height="760" viewBox="0 0 1200 760" fill="none" xmlns="http://www.w3.org/2000/svg">
  <defs>
    <linearGradient id="missionBg" x1="92" y1="58" x2="1030" y2="696" gradientUnits="userSpaceOnUse">
      <stop stop-color="#181526"/>
      <stop offset="1" stop-color="#090912"/>
    </linearGradient>
    <linearGradient id="missionAccent" x1="182" y1="126" x2="850" y2="620" gradientUnits="userSpaceOnUse">
      <stop stop-color="#4F46E5"/>
      <stop offset="0.52" stop-color="#7C3AED"/>
      <stop offset="1" stop-color="#FF00C8"/>
    </linearGradient>
    <linearGradient id="missionSoft" x1="876" y1="102" x2="980" y2="322" gradientUnits="userSpaceOnUse">
      <stop stop-color="#F6F3FF"/>
      <stop offset="1" stop-color="#C8B7FF"/>
    </linearGradient>
  </defs>

  <rect width="1200" height="760" rx="48" fill="url(#missionBg)"/>
  <circle cx="1038" cy="120" r="112" fill="#FF00C8" fill-opacity="0.16"/>
  <circle cx="170" cy="124" r="132" fill="#6B3CFF" fill-opacity="0.18"/>
  <circle cx="1030" cy="644" r="144" fill="#6B3CFF" fill-opacity="0.12"/>

  <rect x="82" y="84" width="1036" height="592" rx="34" fill="#121220" stroke="rgba(255,255,255,0.12)"/>

  <rect x="126" y="128" width="612" height="420" rx="28" fill="#0E0E19" stroke="rgba(255,255,255,0.08)"/>
  <rect x="156" y="166" width="216" height="18" rx="9" fill="#F5B8FF" fill-opacity="0.82"/>
  <rect x="156" y="204" width="430" height="18" rx="9" fill="white" fill-opacity="0.16"/>
  <rect x="156" y="238" width="350" height="18" rx="9" fill="white" fill-opacity="0.1"/>

  <rect x="156" y="294" width="552" height="220" rx="24" fill="url(#missionAccent)" fill-opacity="0.2"/>
  <rect x="186" y="326" width="164" height="156" rx="22" fill="#0F1020"/>
  <rect x="374" y="326" width="304" height="34" rx="17" fill="#FFFFFF" fill-opacity="0.14"/>
  <rect x="374" y="380" width="252" height="20" rx="10" fill="#FFFFFF" fill-opacity="0.1"/>
  <rect x="374" y="416" width="224" height="20" rx="10" fill="#FFFFFF" fill-opacity="0.08"/>
  <rect x="374" y="452" width="190" height="20" rx="10" fill="#FFFFFF" fill-opacity="0.08"/>

  <circle cx="238" cy="382" r="36" fill="#F6F3FF"/>
  <path d="M213 448C223 419 252 419 263 448V466H213V448Z" fill="#F6F3FF"/>
  <circle cx="298" cy="430" r="14" fill="#FF00C8"/>
  <circle cx="334" cy="392" r="10" fill="#6B3CFF"/>

  <rect x="784" y="144" width="270" height="214" rx="28" fill="#11111B" stroke="rgba(255,255,255,0.08)"/>
  <rect x="816" y="182" width="122" height="16" rx="8" fill="url(#missionSoft)"/>
  <rect x="816" y="214" width="196" height="16" rx="8" fill="#FFFFFF" fill-opacity="0.14"/>
  <rect x="816" y="248" width="166" height="16" rx="8" fill="#FFFFFF" fill-opacity="0.08"/>
  <rect x="816" y="288" width="204" height="36" rx="18" fill="#FF00C8" fill-opacity="0.22"/>

  <rect x="784" y="392" width="270" height="172" rx="28" fill="#11111B" stroke="rgba(255,255,255,0.08)"/>
  <path d="M826 500L880 452L930 492L1008 420" stroke="url(#missionAccent)" stroke-width="14" stroke-linecap="round" stroke-linejoin="round"/>
  <circle cx="826" cy="500" r="11" fill="#F6F3FF"/>
  <circle cx="880" cy="452" r="11" fill="#F6F3FF"/>
  <circle cx="930" cy="492" r="11" fill="#F6F3FF"/>
  <circle cx="1008" cy="420" r="11" fill="#F6F3FF"/>

  <rect x="126" y="582" width="928" height="54" rx="27" fill="#10101A" stroke="rgba(255,255,255,0.08)"/>
  <rect x="160" y="600" width="182" height="18" rx="9" fill="#FFFFFF" fill-opacity="0.12"/>
  <rect x="364" y="600" width="152" height="18" rx="9" fill="#FFFFFF" fill-opacity="0.08"/>
  <rect x="894" y="596" width="126" height="26" rx="13" fill="#6B3CFF" fill-opacity="0.24"/>
</svg>
